<svg xmlns="http://www.w3.org/2000/svg" width="83" height="83" viewBox="0 0 83 83">
  <g id="Group_279" data-name="Group 279" transform="translate(-1012 -1253)">
    <circle id="Ellipse_5" data-name="Ellipse 5" cx="41.5" cy="41.5" r="41.5" transform="translate(1012 1253)" fill="#eb0045"/>
    <path id="Icon_awesome-award" data-name="Icon awesome-award" d="M8.852,33.052c-.792-.792-.379-.569-2.29-1.08a6.576,6.576,0,0,1-2.318-1.214L.109,40.9A1.459,1.459,0,0,0,1.516,42.9l4.8-.183,3.3,3.489a1.458,1.458,0,0,0,2.409-.452l4.744-11.632a6.541,6.541,0,0,1-7.922-1.075ZM34.89,40.9,30.755,30.758a6.561,6.561,0,0,1-2.318,1.214c-1.92.514-1.5.29-2.29,1.08a6.542,6.542,0,0,1-7.923,1.075l4.744,11.632a1.458,1.458,0,0,0,2.409.452l3.3-3.489,4.8.183A1.459,1.459,0,0,0,34.89,40.9ZM23.971,30.989c1.393-1.417,1.552-1.3,3.536-1.836A3.7,3.7,0,0,0,30.1,26.512c.682-2.589.5-2.276,2.365-4.17a3.781,3.781,0,0,0,.95-3.608c-.681-2.587-.682-2.226,0-4.815a3.781,3.781,0,0,0-.95-3.608c-1.86-1.894-1.683-1.582-2.365-4.17A3.7,3.7,0,0,0,27.507,3.5c-2.541-.694-2.235-.512-4.1-2.407A3.627,3.627,0,0,0,19.865.127c-2.54.693-2.186.694-4.73,0a3.625,3.625,0,0,0-3.545.967C9.73,2.988,10.036,2.807,7.494,3.5A3.7,3.7,0,0,0,4.9,6.142c-.681,2.588-.5,2.276-2.365,4.17a3.779,3.779,0,0,0-.95,3.608c.681,2.585.682,2.224,0,4.814a3.783,3.783,0,0,0,.95,3.608c1.86,1.894,1.683,1.581,2.365,4.17a3.7,3.7,0,0,0,2.595,2.641c2.04.556,2.192.468,3.535,1.836a3.622,3.622,0,0,0,4.534.53,3.616,3.616,0,0,1,3.876,0A3.621,3.621,0,0,0,23.971,30.989ZM8.9,16.038a8.6,8.6,0,1,1,8.6,8.752,8.676,8.676,0,0,1-8.6-8.752Z" transform="translate(1036.35 1271.206)" fill="none" stroke="#fff" stroke-width="2"/>
  </g>
</svg>
