<svg xmlns="http://www.w3.org/2000/svg" width="83" height="83" viewBox="0 0 83 83">
  <g id="Group_277" data-name="Group 277" transform="translate(-568 -1253)">
    <circle id="Ellipse_3" data-name="Ellipse 3" cx="41.5" cy="41.5" r="41.5" transform="translate(568 1253)" fill="#eb0045"/>
    <path id="Icon_awesome-credit-card" data-name="Icon awesome-credit-card" d="M0,30.375A3.376,3.376,0,0,0,3.375,33.75h33.75A3.376,3.376,0,0,0,40.5,30.375V18H0Zm13.5-4.781a.846.846,0,0,1,.844-.844h9.563a.846.846,0,0,1,.844.844v2.813a.846.846,0,0,1-.844.844H14.344a.846.846,0,0,1-.844-.844Zm-9,0a.846.846,0,0,1,.844-.844h5.063a.846.846,0,0,1,.844.844v2.813a.846.846,0,0,1-.844.844H5.344a.846.846,0,0,1-.844-.844Zm36-19.969V9H0V5.625A3.376,3.376,0,0,1,3.375,2.25h33.75A3.376,3.376,0,0,1,40.5,5.625Z" transform="translate(589.1 1276.206)" fill="none" stroke="#fff" stroke-width="2"/>
  </g>
</svg>
