<svg xmlns="http://www.w3.org/2000/svg" width="83" height="83" viewBox="0 0 83 83">
  <g id="Group_276" data-name="Group 276" transform="translate(-346 -1253)">
    <circle id="Ellipse_2" data-name="Ellipse 2" cx="41.5" cy="41.5" r="41.5" transform="translate(346 1253)" fill="#eb0045"/>
    <path id="Icon_ionic-md-lock" data-name="Icon ionic-md-lock" d="M37.375,18.547H35.188V14.172a10.938,10.938,0,0,0-21.875,0v4.375H11.125A4.388,4.388,0,0,0,6.75,22.922V44.8a4.388,4.388,0,0,0,4.375,4.375h26.25A4.388,4.388,0,0,0,41.75,44.8V22.922A4.388,4.388,0,0,0,37.375,18.547ZM24.25,38.453a4.375,4.375,0,1,1,4.375-4.375A4.388,4.388,0,0,1,24.25,38.453Zm6.781-19.906H17.469V14.172a6.781,6.781,0,0,1,13.563,0Z" transform="translate(362.8 1268.003)" fill="none" stroke="#fff" stroke-width="2"/>
  </g>
</svg>
