<svg xmlns="http://www.w3.org/2000/svg" width="19.692" height="16" viewBox="0 0 19.692 16">
  <defs>
    <style>
      .cls-1 {
        fill: #0f2a65;
      }
    </style>
  </defs>
  <path id="Icon_awesome-list" data-name="Icon awesome-list" class="cls-1" d="M3.077,15.683H.615A.615.615,0,0,0,0,16.3V18.76a.615.615,0,0,0,.615.615H3.077a.615.615,0,0,0,.615-.615V16.3A.615.615,0,0,0,3.077,15.683Zm0-12.308H.615A.615.615,0,0,0,0,3.99V6.452a.615.615,0,0,0,.615.615H3.077a.615.615,0,0,0,.615-.615V3.99A.615.615,0,0,0,3.077,3.375Zm0,6.154H.615A.615.615,0,0,0,0,10.144v2.462a.615.615,0,0,0,.615.615H3.077a.615.615,0,0,0,.615-.615V10.144A.615.615,0,0,0,3.077,9.529Zm16,6.769H6.769a.615.615,0,0,0-.615.615v1.231a.615.615,0,0,0,.615.615H19.077a.615.615,0,0,0,.615-.615V16.913A.615.615,0,0,0,19.077,16.3Zm0-12.308H6.769a.615.615,0,0,0-.615.615V5.837a.615.615,0,0,0,.615.615H19.077a.615.615,0,0,0,.615-.615V4.606A.615.615,0,0,0,19.077,3.99Zm0,6.154H6.769a.615.615,0,0,0-.615.615V11.99a.615.615,0,0,0,.615.615H19.077a.615.615,0,0,0,.615-.615V10.76A.615.615,0,0,0,19.077,10.144Z" transform="translate(0 -3.375)"/>
</svg>
